HIERARCHY
ROOT Hips
{
  OFFSET 5.72205e-005 65.662 3.42586
  CHANNELS 6 Xposition Yposition Zposition Zrotation Xrotation Yrotation
  JOINT Chest
  {
    OFFSET 0 8.7983 -4.7612
    CHANNELS 3 Zrotation Xrotation Yrotation
    JOINT Chest2
    {
      OFFSET 0 8.0291 0.4195
      CHANNELS 3 Zrotation Xrotation Yrotation
      JOINT Chest3
      {
        OFFSET 0 9.9351 -2.2114
        CHANNELS 3 Zrotation Xrotation Yrotation
        JOINT Neck
        {
          OFFSET 0 22.3885 -0.4656
          CHANNELS 3 Zrotation Xrotation Yrotation
          JOINT Head
          {
            OFFSET -0.0001 12.643 3.4389
            CHANNELS 3 Zrotation Xrotation Yrotation
            End Site
            {
              OFFSET 0.0001 17.6655 0.5274
            }
          }
        }
        JOINT LeftCollar
        {
          OFFSET 2.2603 21.606 7.4023
          CHANNELS 3 Zrotation Xrotation Yrotation
          JOINT LeftShoulder
          {
            OFFSET 13.5163 -1.1332 -5.0146
            CHANNELS 3 Zrotation Xrotation Yrotation
            JOINT LeftElbow
            {
              OFFSET -0.0995 -28.05 -0.2431
              CHANNELS 3 Zrotation Xrotation Yrotation
              JOINT LeftWrist
              {
                OFFSET 0.0679 -23.3996 -0.1402
                CHANNELS 3 Zrotation Xrotation Yrotation
                JOINT LeftFinger1
                {
                  OFFSET 0.7932 -9.069 2.5189
                  CHANNELS 3 Zrotation Xrotation Yrotation
                  JOINT LeftFinger11
                  {
                    OFFSET -0.8272 -3.3923 0.5977
                    CHANNELS 3 Zrotation Xrotation Yrotation
                    JOINT LeftFinger12
                    {
                      OFFSET -0.5649 -2.3158 0.4082
                      CHANNELS 3 Zrotation Xrotation Yrotation
                      End Site
                      {
                        OFFSET -0.4919 -1.6479 0.2673
                      }
                    }
                  }
                }
                JOINT LeftFinger2
                {
                  OFFSET 0.9159 -9.2044 0.2193
                  CHANNELS 3 Zrotation Xrotation Yrotation
                  JOINT LeftFinger21
                  {
                    OFFSET 0.0117 -4.1944 -0.0248
                    CHANNELS 3 Zrotation Xrotation Yrotation
                    JOINT LeftFinger22
                    {
                      OFFSET 0.0071 -2.3249 -0.0142
                      CHANNELS 3 Zrotation Xrotation Yrotation
                      End Site
                      {
                        OFFSET -0.1475 -2.0882 0.0028
                      }
                    }
                  }
                }
                JOINT LeftFinger3
                {
                  OFFSET 0.6113 -8.7231 -2.0637
                  CHANNELS 3 Zrotation Xrotation Yrotation
                  JOINT LeftFinger31
                  {
                    OFFSET -0.1927 -3.8059 -0.2383
                    CHANNELS 3 Zrotation Xrotation Yrotation
                    JOINT LeftFinger32
                    {
                      OFFSET -0.1091 -2.1688 -0.1362
                      CHANNELS 3 Zrotation Xrotation Yrotation
                      End Site
                      {
                        OFFSET -0.2358 -1.9176 -0.0906
                      }
                    }
                  }
                }
                JOINT LeftFinger4
                {
                  OFFSET -0.6151 -8.0947 -3.5641
                  CHANNELS 3 Zrotation Xrotation Yrotation
                  JOINT LeftFinger41
                  {
                    OFFSET -0.4882 -2.341 -0.6462
                    CHANNELS 3 Zrotation Xrotation Yrotation
                    JOINT LeftFinger42
                    {
                      OFFSET -0.3575 -1.7167 -0.4742
                      CHANNELS 3 Zrotation Xrotation Yrotation
                      End Site
                      {
                        OFFSET -0.4187 -1.5237 -0.3496
                      }
                    }
                  }
                }
                JOINT LeftFinger0
                {
                  OFFSET -1.42 -1.8761 1.4223
                  CHANNELS 3 Zrotation Xrotation Yrotation
                  JOINT LeftFinger01
                  {
                    OFFSET -1.1471 -3.4929 2.6334
                    CHANNELS 3 Zrotation Xrotation Yrotation
                    JOINT LeftFinger02
                    {
                      OFFSET -0.823 -2.3 1.6571
                      CHANNELS 3 Zrotation Xrotation Yrotation
                      End Site
                      {
                        OFFSET -0.5822 -1.6914 1.1582
                      }
                    }
                  }
                }
              }
            }
          }
        }
        JOINT RightCollar
        {
          OFFSET -2.2603 21.606 7.4023
          CHANNELS 3 Zrotation Xrotation Yrotation
          JOINT RightShoulder
          {
            OFFSET -13.5187 -1.1334 -5.0155
            CHANNELS 3 Zrotation Xrotation Yrotation
            JOINT RightElbow
            {
              OFFSET 0.0994 -28.0499 -0.2431
              CHANNELS 3 Zrotation Xrotation Yrotation
              JOINT RightWrist
              {
                OFFSET -0.0679 -23.3996 -0.1402
                CHANNELS 3 Zrotation Xrotation Yrotation
                JOINT RightFinger1
                {
                  OFFSET -0.7932 -9.0691 2.5189
                  CHANNELS 3 Zrotation Xrotation Yrotation
                  JOINT RightFinger11
                  {
                    OFFSET 0.8272 -3.3923 0.5977
                    CHANNELS 3 Zrotation Xrotation Yrotation
                    JOINT RightFinger12
                    {
                      OFFSET 0.565 -2.3158 0.4082
                      CHANNELS 3 Zrotation Xrotation Yrotation
                      End Site
                      {
                        OFFSET 0.4919 -1.6479 0.2673
                      }
                    }
                  }
                }
                JOINT RightFinger2
                {
                  OFFSET -0.916 -9.2044 0.2193
                  CHANNELS 3 Zrotation Xrotation Yrotation
                  JOINT RightFinger21
                  {
                    OFFSET -0.0117 -4.1944 -0.0248
                    CHANNELS 3 Zrotation Xrotation Yrotation
                    JOINT RightFinger22
                    {
                      OFFSET -0.0071 -2.3249 -0.0142
                      CHANNELS 3 Zrotation Xrotation Yrotation
                      End Site
                      {
                        OFFSET 0.1475 -2.0882 0.0028
                      }
                    }
                  }
                }
                JOINT RightFinger3
                {
                  OFFSET -0.6113 -8.7231 -2.0637
                  CHANNELS 3 Zrotation Xrotation Yrotation
                  JOINT RightFinger31
                  {
                    OFFSET 0.1927 -3.8059 -0.2383
                    CHANNELS 3 Zrotation Xrotation Yrotation
                    JOINT RightFinger32
                    {
                      OFFSET 0.1091 -2.1688 -0.1362
                      CHANNELS 3 Zrotation Xrotation Yrotation
                      End Site
                      {
                        OFFSET 0.2358 -1.9176 -0.0906
                      }
                    }
                  }
                }
                JOINT RightFinger4
                {
                  OFFSET 0.6151 -8.0947 -3.564
                  CHANNELS 3 Zrotation Xrotation Yrotation
                  JOINT RightFinger41
                  {
                    OFFSET 0.4882 -2.341 -0.6462
                    CHANNELS 3 Zrotation Xrotation Yrotation
                    JOINT RightFinger42
                    {
                      OFFSET 0.3574 -1.7166 -0.4742
                      CHANNELS 3 Zrotation Xrotation Yrotation
                      End Site
                      {
                        OFFSET 0.4187 -1.5237 -0.3496
                      }
                    }
                  }
                }
                JOINT RightFinger0
                {
                  OFFSET 1.4199 -1.8761 1.4221
                  CHANNELS 3 Zrotation Xrotation Yrotation
                  JOINT RightFinger01
                  {
                    OFFSET 1.1472 -3.4929 2.6336
                    CHANNELS 3 Zrotation Xrotation Yrotation
                    JOINT RightFinger02
                    {
                      OFFSET 0.8229 -2.3 1.6571
                      CHANNELS 3 Zrotation Xrotation Yrotation
                      End Site
                      {
                        OFFSET 0.5822 -1.6914 1.1582
                      }
                    }
                  }
                }
              }
            }
          }
        }
      }
    }
  }
  JOINT RightHip
  {
    OFFSET -9.412 3.9771 -0.7758
    CHANNELS 3 Zrotation Xrotation Yrotation
    JOINT RightKnee
    {
      OFFSET -0.7531 -40.938 0
      CHANNELS 3 Zrotation Xrotation Yrotation
      JOINT RightAnkle
      {
        OFFSET 0 -40.1986 0
        CHANNELS 3 Zrotation Xrotation Yrotation
        JOINT RightToe
        {
          OFFSET 0 -4.4182 9.239
          CHANNELS 3 Zrotation Xrotation Yrotation
          End Site
          {
            OFFSET 0 0 6.1981
          }
        }
      }
    }
  }
  JOINT LeftHip
  {
    OFFSET 9.4119 3.9773 -0.7758
    CHANNELS 3 Zrotation Xrotation Yrotation
    JOINT LeftKnee
    {
      OFFSET 0.7532 -40.9383 0
      CHANNELS 3 Zrotation Xrotation Yrotation
      JOINT LeftAnkle
      {
        OFFSET 0 -40.1986 0
        CHANNELS 3 Zrotation Xrotation Yrotation
        JOINT LeftToe
        {
          OFFSET 0 -4.4182 9.239
          CHANNELS 3 Zrotation Xrotation Yrotation
          End Site
          {
            OFFSET 0 0 6.1981
          }
        }
      }
    }
  }
}
MOTION
Frames:	6
Frame Time:	0.0333333
0.107238 22.0851 69.2883 89.3142 -89.7452 -90.4186 -0.267951 7.143 -0.194528 -0.517346 14.2868 -0.359322 -0.517348 14.2869 -0.359323 1.10321e-006 8.99151 9.93199e-007 -2.95596e-008 -56.1063 4.05248e-007 29.5999 -35.7505 -13.472 55.9386 -41.0712 28.5928 66.0339 -36.7284 145.011 -44.1668 -12.4377 1.31632 -1.59028e-015 1.59028e-015 -9.93923e-016 1.82074e-031 2.38542e-015 -4.37326e-015 -1.59028e-015 2.38542e-015 -1.59028e-015 -1.59028e-015 1.59028e-015 -9.93923e-016 -0.0128247 0.00232704 9.4821e-005 -2.57653e-007 -9.80433e-007 4.64998e-006 -1.59028e-015 1.59028e-015 -9.93923e-016 -0.0160057 0.00298464 0.000870233 -3.18055e-015 7.95139e-016 6.55989e-015 -1.59028e-015 1.59028e-015 -9.93923e-016 -0.0125749 0.00311071 0.00283115 -2.37456e-006 -2.64045e-009 2.71893e-006 -1.59028e-015 1.59028e-015 -9.93923e-016 1.82074e-031 2.38542e-015 -4.37326e-015 -1.59028e-015 2.38542e-015 -1.59028e-015 -30.643 -35.4255 6.5042 -52.4322 -44.2619 -24.3158 -64.3583 -37.657 -145.391 44.0671 -12.0475 -0.532492 -1.59028e-015 1.59028e-015 -0 -3.31043e-031 4.77083e-015 3.97569e-015 8.82781e-032 3.18055e-015 -1.59028e-015 -1.59028e-015 1.59028e-015 -0 0.0129559 0.00232197 -9.25401e-005 -1.59028e-015 0 -3.97569e-016 -1.59028e-015 1.59028e-015 -0 0.0163693 0.00302905 -0.000879051 4.77083e-015 3.18055e-015 -0 -1.59028e-015 1.59028e-015 -0 0.0145672 0.00367435 -0.00325357 -1.59028e-015 -9.54166e-015 -0 -1.59028e-015 1.59028e-015 -0 -3.31043e-031 4.77083e-015 3.97569e-015 8.82781e-032 3.18055e-015 -1.59028e-015 -87.1752 -56.2509 -64.1128 108.994 72.4309 -111.47 -10.0877 32.3694 0.891884 -2.22339e-006 8.43792e-007 1.80836e-006 76.0363 -57.9815 54.9601 -108.704 72.3918 111.176 9.93837 31.656 -0.778732 -3.61832e-006 -2.90113e-006 2.58727e-006 
0.107238 22.0851 69.2883 89.3142 -89.7452 -90.4186 -0.267951 7.143 -0.194528 -0.517346 14.2868 -0.359322 -0.517348 14.2869 -0.359323 8.35668e-007 8.99151 9.98749e-007 6.06908e-007 -56.1063 5.35303e-007 29.5999 -35.7506 -13.472 55.9386 -41.0712 28.5928 66.0338 -36.7283 145.011 -44.1668 -12.4378 1.31638 4.027e-006 9.39373e-007 -2.52254e-006 9.91263e-006 6.79872e-006 1.5359e-006 -1.59028e-015 7.95139e-016 1.78906e-015 4.027e-006 9.39373e-007 -2.52254e-006 -0.012828 0.00233436 8.34029e-005 -9.31003e-007 4.37724e-006 -3.11194e-006 4.027e-006 9.39373e-007 -2.52254e-006 -0.0160122 0.00299856 0.000847389 3.04785e-006 -5.1016e-006 5.04305e-006 4.027e-006 9.39373e-007 -2.52254e-006 -0.0125859 0.0031141 0.00283435 -1.32417e-031 -1.59028e-015 -4.77083e-015 4.027e-006 9.39373e-007 -2.52254e-006 9.91263e-006 6.79872e-006 1.5359e-006 -1.59028e-015 7.95139e-016 1.78906e-015 -30.643 -35.4255 6.5042 -52.4322 -44.2619 -24.3158 -64.3583 -37.657 -145.391 44.0671 -12.0475 -0.532531 -3.18055e-015 0 -1.07344e-014 5.65499e-006 -1.33255e-005 -6.8826e-006 7.95139e-015 -4.77083e-015 -1.59028e-015 -3.18055e-015 0 -1.07344e-014 0.0129556 0.00231593 -8.65864e-005 4.96564e-031 -4.77083e-015 5.96354e-015 -3.18055e-015 0 -1.07344e-014 0.0163448 0.00301898 -0.000892238 1.59028e-015 0 -6.75868e-015 -3.18055e-015 0 -1.07344e-014 0.0145791 0.00365596 -0.00326824 1.62603e-006 -7.47426e-006 3.27292e-007 -3.18055e-015 0 -1.07344e-014 5.65499e-006 -1.33255e-005 -6.8826e-006 7.95139e-015 -4.77083e-015 -1.59028e-015 -87.1753 -56.2508 -64.1129 108.994 72.4309 -111.47 -10.0877 32.3694 0.891885 -2.97497e-007 9.4308e-007 -3.88669e-006 76.0363 -57.9814 54.9602 -108.704 72.3918 111.176 9.93838 31.656 -0.778723 -1.11493e-006 -7.54305e-006 -3.18393e-006 
0.107238 22.0851 69.2883 89.3142 -89.7452 -90.4186 -0.26899 7.16625 -0.194033 -0.519469 14.3333 -0.3581 -0.51947 14.3333 -0.358101 1.72266e-007 8.99155 1.04499e-007 8.0756e-007 -56.5727 7.17611e-007 29.615 -35.8906 -12.878 55.3785 -41.3785 28.1207 66.6716 -37.0395 145.387 -43.8121 -12.3571 1.43047 1.59028e-015 -3.18055e-015 1.39149e-015 3.18055e-015 7.95139e-016 5.76476e-015 -1.59028e-015 0 -4.57205e-015 1.59028e-015 -3.18055e-015 1.39149e-015 -0.0128461 0.00231741 9.39197e-005 3.18055e-015 7.95139e-016 -4.17448e-015 1.59028e-015 -3.18055e-015 1.39149e-015 -0.0160568 0.00300361 0.000854108 1.59028e-015 0 -2.78299e-015 1.59028e-015 -3.18055e-015 1.39149e-015 -0.0125695 0.00310933 0.00282731 5.88527e-006 9.12605e-006 4.05882e-006 1.59028e-015 -3.18055e-015 1.39149e-015 3.18055e-015 7.95139e-016 5.76476e-015 -1.59028e-015 0 -4.57205e-015 -30.7745 -35.5517 5.82803 -51.791 -44.5158 -23.7593 -64.9929 -37.9552 -145.763 43.6771 -12.0462 -0.666447 1.91559e-005 -1.76352e-005 -5.67125e-006 -0 0 3.57812e-015 4.23424e-006 -1.07526e-006 -2.15882e-006 1.91559e-005 -1.76352e-005 -5.67125e-006 0.0129443 0.00232676 -8.0054e-005 3.18055e-015 -1.59028e-015 -5.56597e-015 1.91559e-005 -1.76352e-005 -5.67125e-006 0.0162875 0.00304188 -0.000862719 4.77083e-015 0 -1.98785e-015 1.91559e-005 -1.76352e-005 -5.67125e-006 0.0145818 0.00370213 -0.00325083 3.53764e-006 -1.91603e-006 -5.80252e-006 1.91559e-005 -1.76352e-005 -5.67125e-006 -0 0 3.57812e-015 4.23424e-006 -1.07526e-006 -2.15882e-006 -87.1752 -56.2509 -64.1128 108.994 72.4309 -111.47 -10.0877 32.3694 0.891865 -1.92589e-006 4.89668e-006 5.69505e-006 76.0363 -57.9815 54.9601 -108.704 72.3918 111.176 9.93837 31.656 -0.778732 -3.61832e-006 -2.90113e-006 2.58727e-006 
0.107238 22.0851 69.2883 89.3142 -89.7452 -90.4186 -0.26984 7.18526 -0.193622 -0.521207 14.3714 -0.357086 -0.521209 14.3714 -0.357086 1.8248e-006 8.9915 1.67524e-006 4.02644e-007 -56.9543 8.26652e-007 29.6286 -36.0053 -12.391 54.9153 -41.627 27.7293 67.1975 -37.2916 145.7 -43.5221 -12.2904 1.52339 4.75531e-006 1.20634e-005 -5.79391e-006 -7.33302e-006 -1.09933e-005 2.12848e-006 -5.31945e-006 -8.71308e-008 8.67486e-007 4.75531e-006 1.20634e-005 -5.79391e-006 -0.0127913 0.00229782 8.49397e-005 -5.68028e-006 -4.5394e-007 2.325e-006 4.75531e-006 1.20634e-005 -5.79391e-006 -0.0159897 0.00297372 0.000857602 -5.3194e-006 -6.07102e-008 8.67204e-007 4.75531e-006 1.20634e-005 -5.79391e-006 -0.0125822 0.00309958 0.00283621 -6.06912e-032 -7.95139e-016 -4.37326e-015 4.75531e-006 1.20634e-005 -5.79391e-006 -7.33302e-006 -1.09933e-005 2.12848e-006 -5.31945e-006 -8.71308e-008 8.67486e-007 -30.8836 -35.6543 5.2735 -51.2608 -44.7208 -23.2983 -65.5165 -38.1966 -146.072 43.358 -12.0445 -0.776009 4.41391e-032 -3.18055e-015 7.95139e-016 -3.18055e-015 -4.77083e-015 1.19271e-015 -6.14703e-006 1.07768e-005 8.28894e-006 4.41391e-032 -3.18055e-015 7.95139e-016 0.0129935 0.00232797 -8.68251e-005 1.59028e-015 0 -7.15625e-015 4.41391e-032 -3.18055e-015 7.95139e-016 0.0163472 0.00303603 -0.000871563 -1.36332e-005 1.01486e-005 9.79232e-006 4.41391e-032 -3.18055e-015 7.95139e-016 0.0145904 0.0036896 -0.00325847 -1.97432e-006 -7.81761e-007 -2.1494e-006 4.41391e-032 -3.18055e-015 7.95139e-016 -3.18055e-015 -4.77083e-015 1.19271e-015 -6.14703e-006 1.07768e-005 8.28894e-006 -87.1752 -56.2509 -64.1128 108.994 72.4309 -111.47 -10.0877 32.3694 0.891884 -2.22339e-006 8.43792e-007 1.80836e-006 76.0363 -57.9815 54.9601 -108.704 72.3918 111.176 9.93837 31.656 -0.778732 -3.61832e-006 -2.90113e-006 2.58727e-006 
0.107238 22.0851 69.2883 89.3142 -89.7452 -90.4186 -0.270689 7.20433 -0.193205 -0.522946 14.4095 -0.356059 -0.522948 14.4095 -0.35606 2.71071e-006 8.99149 2.32934e-006 5.33868e-007 -57.336 7.68778e-007 29.6435 -36.1199 -11.9032 54.4477 -41.8737 27.3335 67.7272 -37.5413 146.017 -43.2323 -12.2235 1.61602 4.41391e-032 -6.36111e-015 3.97569e-016 -1.59028e-015 -7.15625e-015 7.7526e-015 6.9519e-031 -4.77083e-015 8.34896e-015 4.41391e-032 -6.36111e-015 3.97569e-016 -0.0127494 0.0023162 8.33583e-005 6.06912e-031 -3.97569e-015 8.74653e-015 4.41391e-032 -6.36111e-015 3.97569e-016 -0.0160114 0.00300126 0.000850555 1.59028e-015 -1.35174e-014 7.95139e-015 4.41391e-032 -6.36111e-015 3.97569e-016 -0.0125839 0.00313182 0.00282424 6.36111e-015 1.59028e-015 5.96354e-016 4.41391e-032 -6.36111e-015 3.97569e-016 -1.59028e-015 -7.15625e-015 7.7526e-015 6.9519e-031 -4.77083e-015 8.34896e-015 -30.994 -35.756 4.71786 -50.7267 -44.922 -22.8333 -66.0433 -38.4359 -146.385 43.0388 -12.0421 -0.885605 -3.18055e-015 3.18055e-015 -0 -3.88682e-006 1.75063e-006 3.98076e-006 -1.6262e-006 -3.51171e-007 -3.27306e-007 -3.18055e-015 3.18055e-015 -0 0.0129099 0.00231124 -8.3996e-005 2.86325e-007 -1.33574e-005 -6.45754e-006 -3.18055e-015 3.18055e-015 -0 0.0163021 0.00301961 -0.000874935 -1.98626e-031 4.77083e-015 2.38542e-015 -3.18055e-015 3.18055e-015 -0 0.0146183 0.0036989 -0.00326302 -1.97413e-006 -1.05928e-006 -2.14948e-006 -3.18055e-015 3.18055e-015 -0 -3.88682e-006 1.75063e-006 3.98076e-006 -1.6262e-006 -3.51171e-007 -3.27306e-007 -87.1752 -56.2509 -64.1128 108.994 72.4309 -111.47 -10.0877 32.3694 0.891865 -1.92589e-006 4.89668e-006 5.69505e-006 76.0363 -57.9815 54.9601 -108.704 72.3918 111.176 9.93837 31.656 -0.778732 -3.61832e-006 -2.90113e-006 2.58727e-006 
0.107238 22.0851 69.2883 89.3142 -89.7452 -90.4186 -0.271537 7.22335 -0.192782 -0.524685 14.4476 -0.355021 -0.524687 14.4476 -0.355022 9.72187e-007 8.99153 6.98158e-007 5.45361e-008 -57.7178 1.76288e-007 29.6595 -36.2343 -11.4145 53.9758 -42.1182 26.9334 68.2605 -37.7886 146.337 -42.9427 -12.1561 1.70841 6.34499e-032 7.95139e-016 -4.57205e-015 4.65618e-006 1.00223e-005 -8.98501e-006 7.21218e-007 5.02886e-007 -2.91552e-006 6.34499e-032 7.95139e-016 -4.57205e-015 -0.0128463 0.00234735 7.45928e-005 -3.18055e-015 0 -7.15625e-015 6.34499e-032 7.95139e-016 -4.57205e-015 -0.0160774 0.00300607 0.000844344 1.59028e-015 2.38542e-015 6.55989e-015 6.34499e-032 7.95139e-016 -4.57205e-015 -0.0125878 0.00312955 0.00282147 3.10336e-006 1.70132e-006 -5.9896e-006 6.34499e-032 7.95139e-016 -4.57205e-015 4.65618e-006 1.00223e-005 -8.98501e-006 7.21218e-007 5.02886e-007 -2.91552e-006 -31.1058 -35.8568 4.16116 -50.1883 -45.1203 -22.3639 -66.5737 -38.673 -146.702 42.7197 -12.0392 -0.99524 -9.81842e-007 -6.43066e-006 2.81314e-006 -4.87863e-006 7.60047e-006 -9.82004e-007 3.18055e-015 -3.18055e-015 -2.38542e-015 -9.81842e-007 -6.43066e-006 2.81314e-006 0.0128946 0.00231464 -8.2553e-005 -9.82331e-007 7.21285e-007 2.81311e-006 -9.81842e-007 -6.43066e-006 2.81314e-006 0.0163274 0.0030365 -0.00087706 -1.08731e-005 1.54102e-005 1.18532e-005 -9.81842e-007 -6.43066e-006 2.81314e-006 0.0146027 0.00367981 -0.00326336 -4.23462e-006 7.21368e-007 2.15825e-006 -9.81842e-007 -6.43066e-006 2.81314e-006 -4.87863e-006 7.60047e-006 -9.82004e-007 3.18055e-015 -3.18055e-015 -2.38542e-015 -87.1752 -56.2509 -64.1128 108.994 72.4309 -111.47 -10.0877 32.3694 0.891884 -2.22339e-006 8.43792e-007 1.80836e-006 76.0363 -57.9815 54.9601 -108.704 72.3918 111.176 9.93837 31.656 -0.778732 -3.61832e-006 -2.90113e-006 2.58727e-006 
